<svg xmlns="http://www.w3.org/2000/svg" width="34" height="36" fill="none">
    <g filter="url(#a)">
      <ellipse cx="18.7" cy="16.667" fill="url(#b)" rx="10.5" ry="11.667" />
      <ellipse cx="18.7" cy="16.667" fill="url(#c)" rx="8.7" ry="9.667" />
      <ellipse cx="18.7" cy="16.667" fill="#FF9255" rx="10.5" ry="11.667" />
      <ellipse cx="18.7" cy="16.667" fill="url(#d)" rx="8.7" ry="9.667" />
      <mask
        id="f"
        width="22"
        height="24"
        x="8"
        y="5"
        maskUnits="userSpaceOnUse"
      >
        <ellipse cx="18.7" cy="16.667" fill="url(#e)" rx="10.5" ry="11.667" />
      </mask>
      <g mask="url(#f)">
        <path
          fill="url(#g)"
          d="M20.95 17.675c5.64-7.333 11.25-7.5 13.35-6.666l3.45 3.666-3 15.834-21.75 7.5L.85 31.842-.5 17.175c4.8 3.223 15.81 7.834 21.45.5Z"
        />
        <path
          fill="url(#h)"
          d="M17.8 16.66C5.44 8.334 1.8 10.866-.072 12.213l-2.6 4.449 6.193 14.645 22.718 1.75 10.551-9.102-1.717-14.62c-4.006 4.361-9.404 12.629-17.273 7.327Z"
        />
      </g>
    </g>
    <defs>
      <linearGradient
        id="b"
        x1="18.7"
        x2="18.7"
        y1="5"
        y2="28.333"
        gradientUnits="userSpaceOnUse"
      >
        <stop stop-color="#FFC123" />
        <stop offset="1" stop-color="#F8832E" />
      </linearGradient>
      <linearGradient
        id="c"
        x1="18.7"
        x2="18.7"
        y1="7"
        y2="26.333"
        gradientUnits="userSpaceOnUse"
      >
        <stop stop-color="#FFBF24" />
        <stop offset="1" stop-color="#F4924B" />
      </linearGradient>
      <linearGradient
        id="d"
        x1="18.7"
        x2="18.7"
        y1="7"
        y2="26.333"
        gradientUnits="userSpaceOnUse"
      >
        <stop stop-color="#FFBF24" />
        <stop offset="1" stop-color="#F4924B" />
      </linearGradient>
      <linearGradient
        id="e"
        x1="18.7"
        x2="18.7"
        y1="5"
        y2="28.333"
        gradientUnits="userSpaceOnUse"
      >
        <stop stop-color="#FFC123" />
        <stop offset="1" stop-color="#F8832E" />
      </linearGradient>
      <linearGradient
        id="g"
        x1="18.625"
        x2="18.625"
        y1="10.667"
        y2="38.009"
        gradientUnits="userSpaceOnUse"
      >
        <stop stop-color="#FF9D55" stop-opacity=".6" />
        <stop offset="1" stop-color="#FD8A37" stop-opacity="0" />
      </linearGradient>
      <linearGradient
        id="h"
        x1="15.114"
        x2="22.005"
        y1="7.88"
        y2="34.166"
        gradientUnits="userSpaceOnUse"
      >
        <stop stop-color="#FFBD3E" stop-opacity=".49" />
        <stop offset="1" stop-color="#fff" stop-opacity="0" />
      </linearGradient>
      <filter
        id="a"
        width="33"
        height="35.333"
        x=".2"
        y="0"
        color-interpolation-filters="sRGB"
        filterUnits="userSpaceOnUse"
      >
        <feFlood flood-opacity="0" result="BackgroundImageFix" />
        <feColorMatrix
          in="SourceAlpha"
          result="hardAlpha"
          values="0 0 0 0 0 0 0 0 0 0 0 0 0 0 0 0 0 0 127 0"
        />
        <feOffset dx="-2" dy="1" />
        <feGaussianBlur stdDeviation="3" />
        <feColorMatrix values="0 0 0 0 0 0 0 0 0 0 0 0 0 0 0 0 0 0 0.25 0" />
        <feBlend
          in2="BackgroundImageFix"
          result="effect1_dropShadow_115_1605"
        />
        <feBlend
          in="SourceGraphic"
          in2="effect1_dropShadow_115_1605"
          result="shape"
        />
      </filter>
    </defs>
  </svg>
